<svg
    xmlns="http://www.w3.org/2000/svg"
    viewBox="0 0 129 18"
    id="vector">
    <path
        id="path"
        d="M 105.526 2.635 L 105.526 6.718 L 108.044 6.718 C 108.644 6.718 109.14 6.516 109.532 6.113 C 109.935 5.711 110.137 5.231 110.137 4.676 C 110.137 4.132 109.935 3.658 109.532 3.254 C 109.14 2.841 108.644 2.634 108.044 2.634 L 105.526 2.634 L 105.526 2.635 Z M 105.526 8.155 L 105.526 12.891 L 104.022 12.891 L 104.022 1.198 L 108.011 1.198 C 109.025 1.198 109.885 1.535 110.594 2.21 C 111.314 2.885 111.674 3.707 111.674 4.676 C 111.674 5.667 111.314 6.495 110.594 7.158 C 109.897 7.823 109.035 8.154 108.011 8.154 L 105.526 8.154 L 105.526 8.155 Z"
        fill="#ffffff"
        stroke="#ffffff"/>
    <path
        id="path_1"
        d="M 113.194 10.442 C 113.194 10.834 113.36 11.16 113.693 11.422 C 114.025 11.683 114.415 11.813 114.861 11.813 C 115.494 11.813 116.057 11.579 116.553 11.112 C 117.05 10.643 117.297 10.093 117.297 9.463 C 116.828 9.092 116.174 8.907 115.335 8.907 C 114.724 8.907 114.215 9.055 113.807 9.349 C 113.398 9.643 113.194 10.006 113.194 10.442 M 115.14 4.627 C 116.252 4.627 117.129 4.924 117.773 5.518 C 118.415 6.111 118.737 6.925 118.737 7.959 L 118.737 12.891 L 117.298 12.891 L 117.298 11.781 L 117.233 11.781 C 116.611 12.695 115.783 13.153 114.747 13.153 C 113.865 13.153 113.126 12.891 112.532 12.369 C 111.938 11.846 111.641 11.193 111.641 10.409 C 111.641 9.581 111.954 8.923 112.581 8.433 C 113.208 7.943 114.044 7.698 115.09 7.698 C 115.983 7.698 116.72 7.861 117.297 8.188 L 117.297 7.844 C 117.297 7.322 117.09 6.878 116.676 6.513 C 116.261 6.149 115.777 5.967 115.221 5.967 C 114.381 5.967 113.717 6.32 113.226 7.029 L 111.902 6.195 C 112.632 5.15 113.711 4.627 115.14 4.627"
        fill="#ffffff"
        stroke="#ffffff"/>
    <path
        id="path_2"
        d="M 126.993 4.889 L 121.973 16.42 L 120.42 16.42 L 122.284 12.385 L 118.981 4.889 L 120.616 4.889 L 123.003 10.638 L 123.036 10.638 L 125.358 4.889 Z"
        fill="#ffffff"
        stroke="#ffffff"/>
    <path
        id="path_3"
        d="M 99.448 7.134 C 99.448 6.661 99.408 6.205 99.332 5.768 L 92.988 5.768 L 92.988 8.356 L 96.622 8.356 C 96.466 9.199 95.994 9.917 95.278 10.398 L 95.278 12.079 L 97.447 12.079 C 98.716 10.908 99.448 9.179 99.448 7.134"
        fill="#4285f4"
        stroke="#4285f4"
        stroke-width="1"
        fill-rule="evenodd"/>
    <path
        id="path_4"
        d="M 92.988 13.701 C 94.804 13.701 96.332 13.105 97.447 12.079 L 95.278 10.398 C 94.675 10.804 93.897 11.041 92.988 11.041 C 91.234 11.041 89.744 9.859 89.212 8.267 L 86.978 8.267 L 86.978 9.998 C 88.085 12.193 90.36 13.701 92.988 13.701"
        fill="#34a853"
        stroke="#34a853"
        stroke-width="1"
        fill-rule="evenodd"/>
    <path
        id="path_5"
        d="M 89.212 8.267 C 89.076 7.861 89.001 7.428 89.001 6.981 C 89.001 6.534 89.076 6.101 89.212 5.695 L 89.212 3.964 L 86.978 3.964 C 86.52 4.871 86.261 5.896 86.261 6.981 C 86.261 8.066 86.52 9.091 86.978 9.998 L 89.212 8.267 Z"
        fill="#fabb05"
        stroke="#fabb05"
        stroke-width="1"
        fill-rule="evenodd"/>
    <path
        id="path_6"
        d="M 92.988 2.921 C 93.98 2.921 94.868 3.262 95.569 3.929 L 95.569 3.93 L 97.489 2.012 C 96.323 0.928 94.803 0.261 92.988 0.261 C 90.36 0.261 88.085 1.769 86.978 3.964 L 89.212 5.695 C 89.744 4.103 91.234 2.921 92.988 2.921"
        fill="#e94235"
        stroke="#e94235"
        stroke-width="1"
        fill-rule="evenodd"/>
    <path
        id="path_7"
        d="M 4.758 13 C 5.794 13 6.699 12.79 7.474 12.37 C 8.249 11.95 8.844 11.36 9.259 10.599 C 9.674 9.838 9.882 8.968 9.882 7.988 C 9.882 7.008 9.674 6.138 9.259 5.377 C 8.844 4.616 8.249 4.026 7.474 3.606 C 6.699 3.186 5.794 2.976 4.758 2.976 L 4.758 2.976 L 1.552 2.976 L 1.552 13 L 4.758 13 Z M 4.73 11.502 L 3.12 11.502 L 3.12 4.474 L 4.73 4.474 C 5.85 4.474 6.725 4.787 7.355 5.412 C 7.985 6.037 8.3 6.896 8.3 7.988 C 8.3 9.089 7.985 9.95 7.355 10.571 C 6.725 11.192 5.85 11.502 4.73 11.502 L 4.73 11.502 Z M 14.708 13.224 C 15.427 13.224 16.071 13.058 16.64 12.727 C 17.209 12.396 17.653 11.941 17.97 11.362 C 18.287 10.783 18.446 10.139 18.446 9.43 C 18.446 8.73 18.287 8.091 17.97 7.512 C 17.653 6.933 17.209 6.476 16.64 6.14 C 16.071 5.804 15.427 5.636 14.708 5.636 C 13.989 5.636 13.345 5.802 12.776 6.133 C 12.207 6.464 11.763 6.919 11.446 7.498 C 11.129 8.077 10.97 8.721 10.97 9.43 C 10.97 10.139 11.129 10.783 11.446 11.362 C 11.763 11.941 12.207 12.396 12.776 12.727 C 13.345 13.058 13.989 13.224 14.708 13.224 Z M 14.708 11.81 C 14.316 11.81 13.952 11.714 13.616 11.523 C 13.28 11.332 13.012 11.056 12.811 10.697 C 12.61 10.338 12.51 9.915 12.51 9.43 C 12.51 8.945 12.61 8.525 12.811 8.17 C 13.012 7.815 13.28 7.542 13.616 7.351 C 13.952 7.16 14.316 7.064 14.708 7.064 C 15.1 7.064 15.464 7.16 15.8 7.351 C 16.136 7.542 16.404 7.815 16.605 8.17 C 16.806 8.525 16.906 8.945 16.906 9.43 C 16.906 9.915 16.806 10.338 16.605 10.697 C 16.404 11.056 16.136 11.332 15.8 11.523 C 15.464 11.714 15.1 11.81 14.708 11.81 Z M 21.41 13 L 21.41 9.136 C 21.41 8.772 21.485 8.431 21.634 8.114 C 21.783 7.797 21.993 7.542 22.264 7.351 C 22.535 7.16 22.843 7.064 23.188 7.064 C 23.673 7.064 24.054 7.195 24.329 7.456 C 24.604 7.717 24.742 8.128 24.742 8.688 L 24.742 8.688 L 24.742 13 L 26.282 13 L 26.282 8.478 C 26.282 7.601 26.056 6.908 25.603 6.399 C 25.15 5.89 24.49 5.636 23.622 5.636 C 23.165 5.636 22.733 5.746 22.327 5.965 C 21.921 6.184 21.615 6.462 21.41 6.798 L 21.41 6.798 L 21.34 6.798 L 21.34 5.86 L 19.87 5.86 L 19.87 13 L 21.41 13 Z M 30.338 13.224 C 30.823 13.224 31.253 13.121 31.626 12.916 C 31.999 12.711 32.289 12.454 32.494 12.146 L 32.494 12.146 L 32.564 12.146 L 32.564 13 L 34.076 13 L 34.076 8.548 C 34.076 7.624 33.796 6.908 33.236 6.399 C 32.676 5.89 31.878 5.636 30.842 5.636 C 30.226 5.636 29.666 5.757 29.162 6 C 28.658 6.243 28.247 6.583 27.93 7.022 L 27.93 7.022 L 29.008 7.848 C 29.204 7.568 29.463 7.349 29.785 7.19 C 30.107 7.031 30.45 6.952 30.814 6.952 C 31.327 6.952 31.747 7.09 32.074 7.365 C 32.401 7.64 32.564 7.997 32.564 8.436 L 32.564 8.436 L 32.564 8.8 C 32.368 8.707 32.102 8.62 31.766 8.541 C 31.43 8.462 31.052 8.422 30.632 8.422 C 29.783 8.422 29.08 8.637 28.525 9.066 C 27.97 9.495 27.692 10.079 27.692 10.816 C 27.692 11.283 27.804 11.7 28.028 12.069 C 28.252 12.438 28.565 12.722 28.966 12.923 C 29.367 13.124 29.825 13.224 30.338 13.224 Z M 30.604 11.95 C 30.203 11.95 29.876 11.845 29.624 11.635 C 29.372 11.425 29.246 11.157 29.246 10.83 C 29.246 10.466 29.381 10.17 29.652 9.941 C 29.923 9.712 30.347 9.598 30.926 9.598 C 31.234 9.598 31.53 9.635 31.815 9.71 C 32.1 9.785 32.349 9.883 32.564 10.004 C 32.564 10.349 32.48 10.671 32.312 10.97 C 32.144 11.269 31.911 11.507 31.612 11.684 C 31.313 11.861 30.977 11.95 30.604 11.95 Z M 38.692 13.112 C 39.131 13.112 39.504 13.042 39.812 12.902 L 39.812 12.902 L 39.812 11.404 C 39.672 11.497 39.541 11.565 39.42 11.607 C 39.299 11.649 39.159 11.67 39 11.67 C 38.655 11.67 38.412 11.577 38.272 11.39 C 38.123 11.231 38.048 10.961 38.048 10.578 L 38.048 10.578 L 38.048 7.218 L 39.784 7.218 L 39.784 5.86 L 38.048 5.86 L 38.048 3.844 L 36.508 3.844 L 36.508 5.86 L 35.262 5.86 L 35.262 7.218 L 36.508 7.218 L 36.508 10.914 C 36.508 11.605 36.709 12.151 37.11 12.552 C 37.287 12.72 37.516 12.855 37.796 12.958 C 38.076 13.061 38.375 13.112 38.692 13.112 Z M 44.386 13.224 C 45.142 13.224 45.791 13.056 46.332 12.72 C 46.873 12.384 47.312 11.922 47.648 11.334 L 47.648 11.334 L 46.346 10.718 C 46.15 11.063 45.891 11.336 45.569 11.537 C 45.247 11.738 44.867 11.838 44.428 11.838 C 43.877 11.838 43.394 11.658 42.979 11.299 C 42.564 10.94 42.328 10.429 42.272 9.766 L 42.272 9.766 L 47.746 9.766 C 47.774 9.57 47.788 9.407 47.788 9.276 C 47.788 8.585 47.65 7.965 47.375 7.414 C 47.1 6.863 46.698 6.429 46.171 6.112 C 45.644 5.795 45.021 5.636 44.302 5.636 C 43.611 5.636 42.995 5.809 42.454 6.154 C 41.913 6.499 41.49 6.964 41.187 7.547 C 40.884 8.13 40.732 8.763 40.732 9.444 C 40.732 10.163 40.888 10.809 41.201 11.383 C 41.514 11.957 41.948 12.407 42.503 12.734 C 43.058 13.061 43.686 13.224 44.386 13.224 Z M 46.22 8.59 L 42.342 8.59 C 42.473 8.095 42.708 7.701 43.049 7.407 C 43.39 7.113 43.807 6.966 44.302 6.966 C 44.713 6.966 45.06 7.05 45.345 7.218 C 45.63 7.386 45.842 7.594 45.982 7.841 C 46.122 8.088 46.201 8.338 46.22 8.59 L 46.22 8.59 Z M 55.844 13 L 57.468 7.876 L 57.51 7.876 L 59.148 13 L 60.772 13 L 63.054 5.86 L 61.416 5.86 L 59.974 10.97 L 59.918 10.97 L 58.322 5.86 L 56.74 5.86 L 55.13 10.97 L 55.074 10.97 L 53.632 5.86 L 51.966 5.86 L 54.248 13 L 55.844 13 Z M 65.08 4.824 C 65.369 4.824 65.614 4.724 65.815 4.523 C 66.016 4.322 66.116 4.077 66.116 3.788 C 66.116 3.499 66.016 3.254 65.815 3.053 C 65.614 2.852 65.369 2.752 65.08 2.752 C 64.791 2.752 64.546 2.852 64.345 3.053 C 64.144 3.254 64.044 3.499 64.044 3.788 C 64.044 4.077 64.144 4.322 64.345 4.523 C 64.546 4.724 64.791 4.824 65.08 4.824 Z M 65.85 13 L 65.85 5.86 L 64.31 5.86 L 64.31 13 L 65.85 13 Z M 70.774 13.112 C 71.213 13.112 71.586 13.042 71.894 12.902 L 71.894 12.902 L 71.894 11.404 C 71.754 11.497 71.623 11.565 71.502 11.607 C 71.381 11.649 71.241 11.67 71.082 11.67 C 70.737 11.67 70.494 11.577 70.354 11.39 C 70.205 11.231 70.13 10.961 70.13 10.578 L 70.13 10.578 L 70.13 7.218 L 71.866 7.218 L 71.866 5.86 L 70.13 5.86 L 70.13 3.844 L 68.59 3.844 L 68.59 5.86 L 67.344 5.86 L 67.344 7.218 L 68.59 7.218 L 68.59 10.914 C 68.59 11.605 68.791 12.151 69.192 12.552 C 69.369 12.72 69.598 12.855 69.878 12.958 C 70.158 13.061 70.457 13.112 70.774 13.112 Z M 75.096 13 L 75.096 9.164 C 75.096 8.8 75.175 8.457 75.334 8.135 C 75.493 7.813 75.71 7.554 75.985 7.358 C 76.26 7.162 76.571 7.064 76.916 7.064 C 77.373 7.064 77.744 7.199 78.029 7.47 C 78.314 7.741 78.456 8.147 78.456 8.688 L 78.456 8.688 L 78.456 13 L 79.996 13 L 79.996 8.478 C 79.996 7.601 79.767 6.908 79.31 6.399 C 78.853 5.89 78.19 5.636 77.322 5.636 C 76.855 5.636 76.419 5.746 76.013 5.965 C 75.607 6.184 75.301 6.462 75.096 6.798 L 75.096 6.798 L 75.026 6.798 L 75.096 5.706 L 75.096 2.976 L 73.556 2.976 L 73.556 13 L 75.096 13 Z"
        fill="#3c4043"
        stroke="#00000000"
        stroke-width="1"/>
    <path
        id="path_8"
        d="M 4.758 13 C 5.794 13 6.699 12.79 7.474 12.37 C 8.249 11.95 8.844 11.36 9.259 10.599 C 9.674 9.838 9.882 8.968 9.882 7.988 C 9.882 7.008 9.674 6.138 9.259 5.377 C 8.844 4.616 8.249 4.026 7.474 3.606 C 6.699 3.186 5.794 2.976 4.758 2.976 L 4.758 2.976 L 1.552 2.976 L 1.552 13 L 4.758 13 Z M 4.73 11.502 L 3.12 11.502 L 3.12 4.474 L 4.73 4.474 C 5.85 4.474 6.725 4.787 7.355 5.412 C 7.985 6.037 8.3 6.896 8.3 7.988 C 8.3 9.089 7.985 9.95 7.355 10.571 C 6.725 11.192 5.85 11.502 4.73 11.502 L 4.73 11.502 Z M 14.708 13.224 C 15.427 13.224 16.071 13.058 16.64 12.727 C 17.209 12.396 17.653 11.941 17.97 11.362 C 18.287 10.783 18.446 10.139 18.446 9.43 C 18.446 8.73 18.287 8.091 17.97 7.512 C 17.653 6.933 17.209 6.476 16.64 6.14 C 16.071 5.804 15.427 5.636 14.708 5.636 C 13.989 5.636 13.345 5.802 12.776 6.133 C 12.207 6.464 11.763 6.919 11.446 7.498 C 11.129 8.077 10.97 8.721 10.97 9.43 C 10.97 10.139 11.129 10.783 11.446 11.362 C 11.763 11.941 12.207 12.396 12.776 12.727 C 13.345 13.058 13.989 13.224 14.708 13.224 Z M 14.708 11.81 C 14.316 11.81 13.952 11.714 13.616 11.523 C 13.28 11.332 13.012 11.056 12.811 10.697 C 12.61 10.338 12.51 9.915 12.51 9.43 C 12.51 8.945 12.61 8.525 12.811 8.17 C 13.012 7.815 13.28 7.542 13.616 7.351 C 13.952 7.16 14.316 7.064 14.708 7.064 C 15.1 7.064 15.464 7.16 15.8 7.351 C 16.136 7.542 16.404 7.815 16.605 8.17 C 16.806 8.525 16.906 8.945 16.906 9.43 C 16.906 9.915 16.806 10.338 16.605 10.697 C 16.404 11.056 16.136 11.332 15.8 11.523 C 15.464 11.714 15.1 11.81 14.708 11.81 Z M 21.41 13 L 21.41 9.136 C 21.41 8.772 21.485 8.431 21.634 8.114 C 21.783 7.797 21.993 7.542 22.264 7.351 C 22.535 7.16 22.843 7.064 23.188 7.064 C 23.673 7.064 24.054 7.195 24.329 7.456 C 24.604 7.717 24.742 8.128 24.742 8.688 L 24.742 8.688 L 24.742 13 L 26.282 13 L 26.282 8.478 C 26.282 7.601 26.056 6.908 25.603 6.399 C 25.15 5.89 24.49 5.636 23.622 5.636 C 23.165 5.636 22.733 5.746 22.327 5.965 C 21.921 6.184 21.615 6.462 21.41 6.798 L 21.41 6.798 L 21.34 6.798 L 21.34 5.86 L 19.87 5.86 L 19.87 13 L 21.41 13 Z M 30.338 13.224 C 30.823 13.224 31.253 13.121 31.626 12.916 C 31.999 12.711 32.289 12.454 32.494 12.146 L 32.494 12.146 L 32.564 12.146 L 32.564 13 L 34.076 13 L 34.076 8.548 C 34.076 7.624 33.796 6.908 33.236 6.399 C 32.676 5.89 31.878 5.636 30.842 5.636 C 30.226 5.636 29.666 5.757 29.162 6 C 28.658 6.243 28.247 6.583 27.93 7.022 L 27.93 7.022 L 29.008 7.848 C 29.204 7.568 29.463 7.349 29.785 7.19 C 30.107 7.031 30.45 6.952 30.814 6.952 C 31.327 6.952 31.747 7.09 32.074 7.365 C 32.401 7.64 32.564 7.997 32.564 8.436 L 32.564 8.436 L 32.564 8.8 C 32.368 8.707 32.102 8.62 31.766 8.541 C 31.43 8.462 31.052 8.422 30.632 8.422 C 29.783 8.422 29.08 8.637 28.525 9.066 C 27.97 9.495 27.692 10.079 27.692 10.816 C 27.692 11.283 27.804 11.7 28.028 12.069 C 28.252 12.438 28.565 12.722 28.966 12.923 C 29.367 13.124 29.825 13.224 30.338 13.224 Z M 30.604 11.95 C 30.203 11.95 29.876 11.845 29.624 11.635 C 29.372 11.425 29.246 11.157 29.246 10.83 C 29.246 10.466 29.381 10.17 29.652 9.941 C 29.923 9.712 30.347 9.598 30.926 9.598 C 31.234 9.598 31.53 9.635 31.815 9.71 C 32.1 9.785 32.349 9.883 32.564 10.004 C 32.564 10.349 32.48 10.671 32.312 10.97 C 32.144 11.269 31.911 11.507 31.612 11.684 C 31.313 11.861 30.977 11.95 30.604 11.95 Z M 38.692 13.112 C 39.131 13.112 39.504 13.042 39.812 12.902 L 39.812 12.902 L 39.812 11.404 C 39.672 11.497 39.541 11.565 39.42 11.607 C 39.299 11.649 39.159 11.67 39 11.67 C 38.655 11.67 38.412 11.577 38.272 11.39 C 38.123 11.231 38.048 10.961 38.048 10.578 L 38.048 10.578 L 38.048 7.218 L 39.784 7.218 L 39.784 5.86 L 38.048 5.86 L 38.048 3.844 L 36.508 3.844 L 36.508 5.86 L 35.262 5.86 L 35.262 7.218 L 36.508 7.218 L 36.508 10.914 C 36.508 11.605 36.709 12.151 37.11 12.552 C 37.287 12.72 37.516 12.855 37.796 12.958 C 38.076 13.061 38.375 13.112 38.692 13.112 Z M 44.386 13.224 C 45.142 13.224 45.791 13.056 46.332 12.72 C 46.873 12.384 47.312 11.922 47.648 11.334 L 47.648 11.334 L 46.346 10.718 C 46.15 11.063 45.891 11.336 45.569 11.537 C 45.247 11.738 44.867 11.838 44.428 11.838 C 43.877 11.838 43.394 11.658 42.979 11.299 C 42.564 10.94 42.328 10.429 42.272 9.766 L 42.272 9.766 L 47.746 9.766 C 47.774 9.57 47.788 9.407 47.788 9.276 C 47.788 8.585 47.65 7.965 47.375 7.414 C 47.1 6.863 46.698 6.429 46.171 6.112 C 45.644 5.795 45.021 5.636 44.302 5.636 C 43.611 5.636 42.995 5.809 42.454 6.154 C 41.913 6.499 41.49 6.964 41.187 7.547 C 40.884 8.13 40.732 8.763 40.732 9.444 C 40.732 10.163 40.888 10.809 41.201 11.383 C 41.514 11.957 41.948 12.407 42.503 12.734 C 43.058 13.061 43.686 13.224 44.386 13.224 Z M 46.22 8.59 L 42.342 8.59 C 42.473 8.095 42.708 7.701 43.049 7.407 C 43.39 7.113 43.807 6.966 44.302 6.966 C 44.713 6.966 45.06 7.05 45.345 7.218 C 45.63 7.386 45.842 7.594 45.982 7.841 C 46.122 8.088 46.201 8.338 46.22 8.59 L 46.22 8.59 Z M 55.844 13 L 57.468 7.876 L 57.51 7.876 L 59.148 13 L 60.772 13 L 63.054 5.86 L 61.416 5.86 L 59.974 10.97 L 59.918 10.97 L 58.322 5.86 L 56.74 5.86 L 55.13 10.97 L 55.074 10.97 L 53.632 5.86 L 51.966 5.86 L 54.248 13 L 55.844 13 Z M 65.08 4.824 C 65.369 4.824 65.614 4.724 65.815 4.523 C 66.016 4.322 66.116 4.077 66.116 3.788 C 66.116 3.499 66.016 3.254 65.815 3.053 C 65.614 2.852 65.369 2.752 65.08 2.752 C 64.791 2.752 64.546 2.852 64.345 3.053 C 64.144 3.254 64.044 3.499 64.044 3.788 C 64.044 4.077 64.144 4.322 64.345 4.523 C 64.546 4.724 64.791 4.824 65.08 4.824 Z M 65.85 13 L 65.85 5.86 L 64.31 5.86 L 64.31 13 L 65.85 13 Z M 70.774 13.112 C 71.213 13.112 71.586 13.042 71.894 12.902 L 71.894 12.902 L 71.894 11.404 C 71.754 11.497 71.623 11.565 71.502 11.607 C 71.381 11.649 71.241 11.67 71.082 11.67 C 70.737 11.67 70.494 11.577 70.354 11.39 C 70.205 11.231 70.13 10.961 70.13 10.578 L 70.13 10.578 L 70.13 7.218 L 71.866 7.218 L 71.866 5.86 L 70.13 5.86 L 70.13 3.844 L 68.59 3.844 L 68.59 5.86 L 67.344 5.86 L 67.344 7.218 L 68.59 7.218 L 68.59 10.914 C 68.59 11.605 68.791 12.151 69.192 12.552 C 69.369 12.72 69.598 12.855 69.878 12.958 C 70.158 13.061 70.457 13.112 70.774 13.112 Z M 75.096 13 L 75.096 9.164 C 75.096 8.8 75.175 8.457 75.334 8.135 C 75.493 7.813 75.71 7.554 75.985 7.358 C 76.26 7.162 76.571 7.064 76.916 7.064 C 77.373 7.064 77.744 7.199 78.029 7.47 C 78.314 7.741 78.456 8.147 78.456 8.688 L 78.456 8.688 L 78.456 13 L 79.996 13 L 79.996 8.478 C 79.996 7.601 79.767 6.908 79.31 6.399 C 78.853 5.89 78.19 5.636 77.322 5.636 C 76.855 5.636 76.419 5.746 76.013 5.965 C 75.607 6.184 75.301 6.462 75.096 6.798 L 75.096 6.798 L 75.026 6.798 L 75.096 5.706 L 75.096 2.976 L 73.556 2.976 L 73.556 13 L 75.096 13 Z"
        fill="#ffffff"
        stroke="#ffffff"/>
</svg>
